<svg width="95" height="28" viewBox="0 0 95 28" fill="none" xmlns="http://www.w3.org/2000/svg">
<g clip-path="url(#clip0_106_500)">
<path d="M14 2.33334C17.8406 2.33334 21 5.17418 21 8.75001C21 10.3098 20.3991 11.7297 19.4028 12.8333H24.5C24.8094 12.8333 25.1061 12.9563 25.3249 13.1751C25.5437 13.3938 25.6666 13.6906 25.6666 14C25.6666 17.8407 22.8258 21 19.25 21C17.6913 21 16.2715 20.3992 15.1666 19.404V24.5C15.1666 24.8094 15.0437 25.1062 14.8249 25.325C14.6061 25.5438 14.3094 25.6667 14 25.6667C10.1593 25.6667 6.99998 22.8258 6.99998 19.25C6.99998 17.6913 7.60081 16.2715 8.59598 15.1667H3.49998C3.19056 15.1667 2.89381 15.0438 2.67502 14.825C2.45623 14.6062 2.33331 14.3094 2.33331 14C2.33331 10.1593 5.17415 7.00001 8.74998 7.00001C10.3098 7.00001 11.7296 7.60084 12.8333 8.59718V3.50001C12.8333 3.19059 12.9562 2.89384 13.175 2.67505C13.3938 2.45626 13.6906 2.33334 14 2.33334Z" fill="#181818"/>
</g>
<path d="M35.0351 21.16C34.6351 21.16 34.3284 21.0533 34.1151 20.84C33.9017 20.6133 33.7951 20.2933 33.7951 19.88V12.32C33.7951 11.9067 33.9017 11.5933 34.1151 11.38C34.3284 11.1667 34.6284 11.06 35.0151 11.06C35.4017 11.06 35.7017 11.1667 35.9151 11.38C36.1284 11.5933 36.2351 11.9067 36.2351 12.32V13.78L36.0151 13.18C36.2817 12.5133 36.6951 11.9867 37.2551 11.6C37.8151 11.2133 38.4817 11.02 39.2551 11.02C40.0417 11.02 40.6884 11.2067 41.1951 11.58C41.7017 11.9533 42.0551 12.5267 42.2551 13.3H41.9751C42.2417 12.5933 42.6817 12.04 43.2951 11.64C43.9084 11.2267 44.6151 11.02 45.4151 11.02C46.1617 11.02 46.7751 11.1667 47.2551 11.46C47.7484 11.7533 48.1151 12.2 48.3551 12.8C48.5951 13.3867 48.7151 14.1333 48.7151 15.04V19.88C48.7151 20.2933 48.6017 20.6133 48.3751 20.84C48.1617 21.0533 47.8551 21.16 47.4551 21.16C47.0551 21.16 46.7484 21.0533 46.5351 20.84C46.3217 20.6133 46.2151 20.2933 46.2151 19.88V15.14C46.2151 14.3933 46.0884 13.8467 45.8351 13.5C45.5951 13.1533 45.1817 12.98 44.5951 12.98C43.9417 12.98 43.4284 13.2133 43.0551 13.68C42.6817 14.1333 42.4951 14.7667 42.4951 15.58V19.88C42.4951 20.2933 42.3884 20.6133 42.1751 20.84C41.9617 21.0533 41.6551 21.16 41.2551 21.16C40.8551 21.16 40.5417 21.0533 40.3151 20.84C40.1017 20.6133 39.9951 20.2933 39.9951 19.88V15.14C39.9951 14.3933 39.8684 13.8467 39.6151 13.5C39.3751 13.1533 38.9684 12.98 38.3951 12.98C37.7417 12.98 37.2284 13.2133 36.8551 13.68C36.4817 14.1333 36.2951 14.7667 36.2951 15.58V19.88C36.2951 20.7333 35.8751 21.16 35.0351 21.16ZM52.5341 21.14C52.1341 21.14 51.8275 21.02 51.6141 20.78C51.4008 20.54 51.2941 20.2067 51.2941 19.78V12.44C51.2941 12 51.4008 11.6667 51.6141 11.44C51.8275 11.2 52.1341 11.08 52.5341 11.08C52.9341 11.08 53.2408 11.2 53.4541 11.44C53.6808 11.6667 53.7941 12 53.7941 12.44V19.78C53.7941 20.2067 53.6875 20.54 53.4741 20.78C53.2608 21.02 52.9475 21.14 52.5341 21.14ZM52.5341 9.22C52.0675 9.22 51.7008 9.10667 51.4341 8.88C51.1808 8.64 51.0541 8.31333 51.0541 7.9C51.0541 7.47333 51.1808 7.14667 51.4341 6.92C51.7008 6.69333 52.0675 6.58 52.5341 6.58C53.0141 6.58 53.3808 6.69333 53.6341 6.92C53.8875 7.14667 54.0141 7.47333 54.0141 7.9C54.0141 8.31333 53.8875 8.64 53.6341 8.88C53.3808 9.10667 53.0141 9.22 52.5341 9.22ZM59.7318 21.2C58.6251 21.2 57.7918 20.8867 57.2318 20.26C56.6718 19.62 56.3918 18.6867 56.3918 17.46V8C56.3918 7.58667 56.4985 7.27333 56.7118 7.06C56.9251 6.84667 57.2318 6.74 57.6318 6.74C58.0318 6.74 58.3385 6.84667 58.5518 7.06C58.7785 7.27333 58.8918 7.58667 58.8918 8V17.34C58.8918 17.9533 59.0185 18.4067 59.2718 18.7C59.5385 18.9933 59.9118 19.14 60.3918 19.14C60.4985 19.14 60.5985 19.14 60.6918 19.14C60.7851 19.1267 60.8785 19.1133 60.9718 19.1C61.1585 19.0733 61.2851 19.1267 61.3518 19.26C61.4185 19.38 61.4518 19.6333 61.4518 20.02C61.4518 20.3533 61.3851 20.6133 61.2518 20.8C61.1185 20.9867 60.8985 21.1 60.5918 21.14C60.4585 21.1533 60.3185 21.1667 60.1718 21.18C60.0251 21.1933 59.8785 21.2 59.7318 21.2ZM66.1185 21.2C65.0118 21.2 64.1785 20.8867 63.6185 20.26C63.0585 19.62 62.7785 18.6867 62.7785 17.46V8C62.7785 7.58667 62.8852 7.27333 63.0985 7.06C63.3118 6.84667 63.6185 6.74 64.0185 6.74C64.4185 6.74 64.7252 6.84667 64.9385 7.06C65.1652 7.27333 65.2785 7.58667 65.2785 8V17.34C65.2785 17.9533 65.4052 18.4067 65.6585 18.7C65.9252 18.9933 66.2985 19.14 66.7785 19.14C66.8852 19.14 66.9852 19.14 67.0785 19.14C67.1718 19.1267 67.2652 19.1133 67.3585 19.1C67.5452 19.0733 67.6718 19.1267 67.7385 19.26C67.8052 19.38 67.8385 19.6333 67.8385 20.02C67.8385 20.3533 67.7718 20.6133 67.6385 20.8C67.5052 20.9867 67.2852 21.1 66.9785 21.14C66.8452 21.1533 66.7052 21.1667 66.5585 21.18C66.4118 21.1933 66.2652 21.2 66.1185 21.2ZM70.5605 21.1C70.1072 21.1 69.7405 20.96 69.4605 20.68C69.1939 20.4 69.0605 20.04 69.0605 19.6C69.0605 19.1733 69.1939 18.8267 69.4605 18.56C69.7405 18.28 70.1072 18.14 70.5605 18.14C71.0272 18.14 71.3872 18.28 71.6405 18.56C71.9072 18.8267 72.0405 19.1733 72.0405 19.6C72.0405 20.04 71.9072 20.4 71.6405 20.68C71.3872 20.96 71.0272 21.1 70.5605 21.1ZM77.9601 21.2C77.3867 21.2 76.7801 21.14 76.1401 21.02C75.5001 20.9 74.9267 20.6933 74.4201 20.4C74.2067 20.2667 74.0534 20.1133 73.9601 19.94C73.8801 19.7533 73.8467 19.5733 73.8601 19.4C73.8867 19.2133 73.9534 19.0533 74.0601 18.92C74.1801 18.7867 74.3267 18.7 74.5001 18.66C74.6867 18.62 74.8867 18.6533 75.1001 18.76C75.6334 19.0133 76.1334 19.1933 76.6001 19.3C77.0667 19.3933 77.5267 19.44 77.9801 19.44C78.6201 19.44 79.0934 19.3333 79.4001 19.12C79.7201 18.8933 79.8801 18.6 79.8801 18.24C79.8801 17.9333 79.7734 17.7 79.5601 17.54C79.3601 17.3667 79.0534 17.24 78.6401 17.16L76.6401 16.78C75.8134 16.62 75.1801 16.32 74.7401 15.88C74.3134 15.4267 74.1001 14.8467 74.1001 14.14C74.1001 13.5 74.2734 12.9467 74.6201 12.48C74.9801 12.0133 75.4734 11.6533 76.1001 11.4C76.7267 11.1467 77.4467 11.02 78.2601 11.02C78.8467 11.02 79.3934 11.0867 79.9001 11.22C80.4201 11.34 80.9201 11.5333 81.4001 11.8C81.6001 11.9067 81.7334 12.0467 81.8001 12.22C81.8801 12.3933 81.9001 12.5733 81.8601 12.76C81.8201 12.9333 81.7401 13.0933 81.6201 13.24C81.5001 13.3733 81.3467 13.46 81.1601 13.5C80.9867 13.5267 80.7867 13.4867 80.5601 13.38C80.1467 13.1667 79.7467 13.0133 79.3601 12.92C78.9867 12.8267 78.6267 12.78 78.2801 12.78C77.6267 12.78 77.1401 12.8933 76.8201 13.12C76.5134 13.3467 76.3601 13.6467 76.3601 14.02C76.3601 14.3 76.4534 14.5333 76.6401 14.72C76.8267 14.9067 77.1134 15.0333 77.5001 15.1L79.5001 15.48C80.3667 15.64 81.0201 15.9333 81.4601 16.36C81.9134 16.7867 82.1401 17.36 82.1401 18.08C82.1401 19.0533 81.7601 19.82 81.0001 20.38C80.2401 20.9267 79.2267 21.2 77.9601 21.2ZM85.3857 21.16C84.9857 21.16 84.679 21.0533 84.4657 20.84C84.2524 20.6133 84.1457 20.2933 84.1457 19.88V8C84.1457 7.58667 84.2524 7.27333 84.4657 7.06C84.679 6.84667 84.9857 6.74 85.3857 6.74C85.7857 6.74 86.0924 6.84667 86.3057 7.06C86.5324 7.27333 86.6457 7.58667 86.6457 8V13.18H86.3657C86.659 12.4733 87.1124 11.94 87.7257 11.58C88.3524 11.2067 89.059 11.02 89.8457 11.02C90.6324 11.02 91.279 11.1667 91.7857 11.46C92.2924 11.7533 92.6724 12.2 92.9257 12.8C93.179 13.3867 93.3057 14.1333 93.3057 15.04V19.88C93.3057 20.2933 93.199 20.6133 92.9857 20.84C92.7724 21.0533 92.4657 21.16 92.0657 21.16C91.6657 21.16 91.3524 21.0533 91.1257 20.84C90.9124 20.6133 90.8057 20.2933 90.8057 19.88V15.16C90.8057 14.4 90.659 13.8467 90.3657 13.5C90.0857 13.1533 89.6457 12.98 89.0457 12.98C88.3124 12.98 87.7257 13.2133 87.2857 13.68C86.859 14.1333 86.6457 14.74 86.6457 15.5V19.88C86.6457 20.7333 86.2257 21.16 85.3857 21.16Z" fill="#181818"/>
<defs>
<clipPath id="clip0_106_500">
<rect width="28" height="28" fill="white"/>
</clipPath>
</defs>
</svg>
